# xmcd
#
# Track frame offsets: 
#        150
#        21767
#        40447
#        57790
#        74870
#        91745
#        112940
#        131820
#        150007
#        169037
#
# Disc length: 2416 seconds
#
# Revision: 1
# Processed by: cddbd v1.5.2PL0 Copyright (c) Steve Scherf et al.
# Submitted via: ExactAudioCopy v1.1
#
DISCID=7b096e0a
DTITLE=K.T. Oslin - All American Country
DYEAR=2004
DGENRE=Country
TTITLE0=This Woman
TTITLE1=I'll Always Come Back
TTITLE2=Come Next Monday
TTITLE3=Live Close By, Visit Often
TTITLE4=Two Hearts
TTITLE5=Hold Me
TTITLE6=Momma Was A Dancer
TTITLE7=Didn't Expect It To Go Down This Way
TTITLE8=Old Pictures
TTITLE9=Miss The Mississippi And You
EXTD=
EXTT0=
EXTT1=
EXTT2=
EXTT3=
EXTT4=
EXTT5=
EXTT6=
EXTT7=
EXTT8=
EXTT9=
PLAYORDER=
